<?xml version="1.0" standalone="no"?>
<!DOCTYPE svg PUBLIC "-//W3C//DTD SVG 20010904//EN"
 "http://www.w3.org/TR/2001/REC-SVG-20010904/DTD/svg10.dtd">
<svg version="1.0" xmlns="http://www.w3.org/2000/svg"
 width="211.000000pt" height="238.000000pt" viewBox="0 0 211.000000 238.000000"
 preserveAspectRatio="xMidYMid meet">

<g transform="translate(0.000000,238.000000) scale(0.100000,-0.100000)"
fill="#000000" stroke="none">
<path d="M1871 2306 c-40 -41 -71 -78 -68 -83 7 -11 -236 -255 -270 -272 -26
-13 -48 -6 -91 31 -71 61 -39 86 -629 -504 -368 -369 -537 -544 -548 -570 -34
-83 -6 -189 74 -279 87 -97 213 -143 292 -105 19 9 272 253 572 554 602 602
570 561 502 642 -19 23 -35 50 -35 60 0 10 22 44 50 77 63 74 224 223 242 223
15 0 148 130 148 146 0 13 -142 154 -155 154 -6 0 -44 -33 -84 -74z m-451
-367 c22 -18 44 -46 50 -63 12 -38 80 -106 131 -132 20 -11 51 -36 69 -57 l34
-39 -545 -544 -544 -544 -50 0 c-130 0 -265 141 -265 277 l0 58 537 537 c296
296 539 538 541 538 2 0 21 -14 42 -31z"/>
<path d="M991 1116 c-256 -256 -352 -358 -348 -370 4 -9 12 -16 19 -16 20 0
718 703 718 723 0 10 -8 17 -18 17 -9 0 -175 -158 -371 -354z"/>
<path d="M236 2325 c-8 -8 -31 -15 -50 -15 -29 0 -36 -4 -36 -20 0 -17 7 -20
39 -20 22 0 43 -4 46 -10 8 -13 218 -13 230 -1 6 5 26 11 45 13 24 2 36 9 38
21 3 14 -4 17 -33 17 -20 0 -43 7 -51 15 -12 11 -40 15 -114 15 -74 0 -102 -4
-114 -15z"/>
<path d="M650 2325 c-7 -8 -28 -15 -46 -15 -27 0 -34 -4 -34 -20 0 -17 7 -20
39 -20 22 0 43 -4 46 -10 4 -6 53 -10 115 -10 62 0 111 4 115 10 3 6 24 10 46
10 32 0 39 3 39 20 0 17 -7 20 -39 20 -22 0 -44 6 -51 15 -10 12 -36 15 -115
15 -79 0 -105 -3 -115 -15z"/>
<path d="M70 1160 l0 -1090 -36 0 c-34 0 -35 -1 -32 -32 l3 -33 557 -3 558 -2
0 35 c0 32 -2 35 -30 35 l-30 0 0 352 0 353 -80 -80 -80 -80 0 -272 0 -273
-130 0 -130 0 0 163 0 162 -80 0 -80 0 0 -162 0 -163 -125 0 -125 0 0 251 0
251 -35 56 c-85 139 -81 296 10 404 l25 30 -2 591 -3 592 -77 3 -78 3 0 -1091z"/>
<path d="M487 2243 c-10 -10 -8 -923 1 -923 5 0 41 34 80 75 l72 75 0 390 0
390 -73 0 c-41 0 -77 -3 -80 -7z"/>
<path d="M900 1993 l0 -258 80 78 80 77 -2 178 -3 177 -77 3 -78 3 0 -258z"/>
<path d="M1571 1109 c-125 -24 -219 -135 -228 -269 -9 -124 58 -234 174 -287
48 -22 65 -25 132 -21 91 6 140 28 199 91 153 167 77 424 -144 482 -64 16 -69
17 -133 4z m114 -35 c26 10 103 -34 145 -82 120 -135 72 -339 -97 -414 -40
-18 -116 -23 -165 -11 -20 5 -45 76 -54 154 -13 110 30 267 91 333 29 32 38
36 50 26 8 -7 22 -10 30 -6z m-130 -31 c-46 -68 -70 -165 -69 -283 0 -58 6
-118 13 -134 6 -16 10 -31 7 -33 -2 -2 -26 18 -53 44 -84 81 -106 200 -55 299
27 51 96 118 115 111 8 -3 23 3 33 14 30 33 36 21 9 -18z"/>
<path d="M1617 1032 c-9 -10 -17 -24 -17 -30 0 -20 24 -14 38 9 18 29 1 45
-21 21z"/>
<path d="M1570 941 c-5 -11 -10 -24 -10 -30 0 -17 27 -13 34 5 16 41 -4 62
-24 25z"/>
<path d="M1547 854 c-11 -11 -8 -52 4 -59 14 -9 16 -5 21 29 3 28 -11 44 -25
30z"/>
<path d="M1542 733 c4 -39 28 -42 28 -4 0 21 -5 31 -16 31 -11 0 -14 -8 -12
-27z"/>
<path d="M1557 653 c-7 -12 11 -53 23 -53 15 0 8 52 -7 57 -6 2 -13 0 -16 -4z"/>
<path d="M1472 1008 c-14 -14 -16 -48 -2 -48 10 0 30 32 30 49 0 14 -13 14
-28 -1z"/>
<path d="M1434 916 c-8 -20 -1 -47 11 -49 6 -1 11 13 13 31 3 32 -14 45 -24
18z"/>
<path d="M1420 796 c0 -26 4 -36 16 -36 11 0 14 8 12 32 -4 46 -28 49 -28 4z"/>
<path d="M1426 722 c-9 -15 6 -52 20 -52 15 0 18 18 8 44 -7 17 -20 21 -28 8z"/>
</g>
</svg>
